<?xml version="1.0" encoding="UTF-8" standalone="no"?>
<!DOCTYPE svg PUBLIC "-//W3C//DTD SVG 1.1//EN" "http://www.w3.org/Graphics/SVG/1.1/DTD/svg11.dtd">
<svg width="100%" height="100%" viewBox="0 0 717 63" version="1.1" xmlns="http://www.w3.org/2000/svg" xmlns:xlink="http://www.w3.org/1999/xlink" xml:space="preserve" xmlns:serif="http://www.serif.com/" style="fill-rule:evenodd;clip-rule:evenodd;stroke-linejoin:round;stroke-miterlimit:2;">
    <g transform="matrix(1,0,0,1,-1705,-1097)">
        <g transform="matrix(1,0,0,1,1440,810)">
            <g transform="matrix(1,0,0,1,0,54)">
                <g transform="matrix(56.5941,0,0,56.5941,263.89,280.137)">
                    <path d="M0.18,-0.048L0.595,-0.048L0.595,0.052L0.036,0.052L0.036,-0.025C0.095,-0.129 0.178,-0.222 0.286,-0.303C0.36,-0.358 0.41,-0.403 0.436,-0.436C0.459,-0.465 0.47,-0.497 0.47,-0.531C0.47,-0.573 0.458,-0.606 0.434,-0.63C0.408,-0.656 0.37,-0.669 0.319,-0.669C0.232,-0.669 0.178,-0.618 0.156,-0.517L0.045,-0.549C0.064,-0.621 0.098,-0.675 0.146,-0.711C0.195,-0.748 0.26,-0.766 0.34,-0.766C0.421,-0.766 0.485,-0.743 0.532,-0.698C0.574,-0.657 0.595,-0.606 0.595,-0.544C0.595,-0.489 0.583,-0.444 0.558,-0.407C0.531,-0.367 0.479,-0.32 0.402,-0.266C0.303,-0.197 0.229,-0.125 0.18,-0.048Z" style="fill:white;fill-rule:nonzero;"/>
                </g>
                <g transform="matrix(56.5941,0,0,56.5941,300.763,280.137)">
                    <path d="M0.334,-0.766C0.429,-0.766 0.5,-0.731 0.549,-0.66C0.598,-0.589 0.622,-0.486 0.622,-0.35C0.622,-0.073 0.527,0.066 0.336,0.066C0.247,0.066 0.178,0.034 0.129,-0.031C0.075,-0.102 0.048,-0.209 0.048,-0.35C0.048,-0.484 0.074,-0.587 0.125,-0.66C0.175,-0.731 0.245,-0.766 0.334,-0.766ZM0.336,-0.028C0.387,-0.028 0.426,-0.051 0.451,-0.096C0.48,-0.148 0.495,-0.232 0.495,-0.349C0.495,-0.465 0.481,-0.549 0.453,-0.601C0.427,-0.649 0.387,-0.673 0.334,-0.673C0.227,-0.673 0.174,-0.565 0.174,-0.349C0.174,-0.135 0.228,-0.028 0.336,-0.028Z" style="fill:white;fill-rule:nonzero;"/>
                </g>
                <g transform="matrix(56.5941,0,0,56.5941,338.711,280.137)">
                    <path d="M0.18,-0.048L0.595,-0.048L0.595,0.052L0.036,0.052L0.036,-0.025C0.095,-0.129 0.178,-0.222 0.286,-0.303C0.36,-0.358 0.41,-0.403 0.436,-0.436C0.459,-0.465 0.47,-0.497 0.47,-0.531C0.47,-0.573 0.458,-0.606 0.434,-0.63C0.408,-0.656 0.37,-0.669 0.319,-0.669C0.232,-0.669 0.178,-0.618 0.156,-0.517L0.045,-0.549C0.064,-0.621 0.098,-0.675 0.146,-0.711C0.195,-0.748 0.26,-0.766 0.34,-0.766C0.421,-0.766 0.485,-0.743 0.532,-0.698C0.574,-0.657 0.595,-0.606 0.595,-0.544C0.595,-0.489 0.583,-0.444 0.558,-0.407C0.531,-0.367 0.479,-0.32 0.402,-0.266C0.303,-0.197 0.229,-0.125 0.18,-0.048Z" style="fill:white;fill-rule:nonzero;"/>
                </g>
                <g transform="matrix(56.5941,0,0,56.5941,375.584,280.137)">
                    <path d="M0.044,-0.153L0.162,-0.18C0.179,-0.079 0.235,-0.028 0.332,-0.028C0.382,-0.028 0.422,-0.045 0.452,-0.078C0.482,-0.111 0.497,-0.154 0.497,-0.208C0.497,-0.263 0.483,-0.306 0.454,-0.337C0.424,-0.37 0.383,-0.386 0.33,-0.386C0.261,-0.385 0.208,-0.359 0.172,-0.307L0.077,-0.311L0.114,-0.749L0.573,-0.749L0.574,-0.65L0.215,-0.65L0.19,-0.41C0.235,-0.453 0.292,-0.474 0.361,-0.474C0.44,-0.474 0.503,-0.45 0.55,-0.402C0.595,-0.355 0.618,-0.293 0.618,-0.216C0.618,-0.129 0.593,-0.061 0.544,-0.011C0.494,0.04 0.425,0.065 0.336,0.065C0.178,0.065 0.081,-0.008 0.044,-0.153Z" style="fill:white;fill-rule:nonzero;"/>
                </g>
                <g transform="matrix(56.5941,0,0,56.5941,428.545,280.137)">
                    <path d="M0.761,0.054L0.637,0.054L0.637,-0.307L0.212,-0.307L0.212,0.054L0.089,0.054L0.089,-0.754L0.212,-0.754L0.212,-0.413L0.637,-0.413L0.637,-0.754L0.761,-0.754L0.761,0.054Z" style="fill:white;fill-rule:nonzero;"/>
                </g>
                <g transform="matrix(56.5941,0,0,56.5941,476.567,280.137)">
                    <path d="M0.626,0.052L0.511,0.052C0.492,0.025 0.483,-0.01 0.482,-0.054C0.437,0.022 0.353,0.062 0.231,0.065C0.174,0.065 0.129,0.05 0.095,0.02C0.061,-0.01 0.044,-0.051 0.044,-0.102C0.044,-0.207 0.115,-0.268 0.256,-0.287C0.375,-0.302 0.449,-0.321 0.477,-0.346C0.477,-0.388 0.468,-0.417 0.45,-0.433C0.43,-0.451 0.392,-0.46 0.336,-0.46C0.247,-0.46 0.193,-0.425 0.174,-0.356L0.061,-0.375C0.077,-0.434 0.107,-0.477 0.15,-0.504C0.194,-0.532 0.256,-0.546 0.337,-0.546C0.432,-0.546 0.5,-0.527 0.54,-0.49C0.577,-0.455 0.595,-0.398 0.595,-0.318L0.595,-0.077C0.595,-0.024 0.605,0.019 0.626,0.052ZM0.484,-0.201L0.484,-0.273C0.451,-0.246 0.394,-0.226 0.312,-0.215C0.256,-0.208 0.216,-0.194 0.192,-0.175C0.171,-0.158 0.16,-0.135 0.16,-0.106C0.16,-0.077 0.169,-0.057 0.188,-0.044C0.207,-0.031 0.238,-0.025 0.281,-0.025C0.344,-0.025 0.394,-0.043 0.431,-0.078C0.466,-0.111 0.484,-0.152 0.484,-0.201Z" style="fill:white;fill-rule:nonzero;"/>
                </g>
                <g transform="matrix(56.5941,0,0,56.5941,514.006,280.137)">
                    <path d="M0.179,-0.254L0.179,0.052L0.061,0.052L0.061,-0.531L0.18,-0.531L0.18,-0.423C0.194,-0.462 0.215,-0.493 0.242,-0.514C0.269,-0.535 0.299,-0.545 0.333,-0.545C0.372,-0.545 0.406,-0.536 0.436,-0.517L0.393,-0.412C0.374,-0.429 0.347,-0.437 0.313,-0.437C0.272,-0.437 0.24,-0.421 0.216,-0.39C0.191,-0.358 0.179,-0.313 0.179,-0.254Z" style="fill:white;fill-rule:nonzero;"/>
                </g>
                <g transform="matrix(56.5941,0,0,56.5941,538.371,280.137)">
                    <path d="M0.928,0.052L0.809,0.052L0.809,-0.298C0.809,-0.352 0.8,-0.391 0.783,-0.415C0.765,-0.44 0.735,-0.453 0.693,-0.453C0.655,-0.453 0.624,-0.44 0.6,-0.414C0.574,-0.386 0.56,-0.346 0.558,-0.293L0.558,0.052L0.439,0.052L0.439,-0.3C0.439,-0.353 0.43,-0.391 0.413,-0.415C0.395,-0.44 0.365,-0.452 0.322,-0.452C0.283,-0.452 0.252,-0.439 0.229,-0.412C0.204,-0.383 0.19,-0.342 0.189,-0.289L0.189,0.052L0.071,0.052L0.071,-0.532L0.189,-0.532L0.189,-0.43C0.207,-0.467 0.232,-0.495 0.265,-0.516C0.297,-0.536 0.333,-0.546 0.374,-0.546C0.466,-0.546 0.524,-0.504 0.548,-0.42C0.565,-0.461 0.59,-0.492 0.624,-0.514C0.657,-0.535 0.696,-0.546 0.74,-0.546C0.868,-0.546 0.931,-0.47 0.928,-0.318L0.928,0.052Z" style="fill:white;fill-rule:nonzero;"/>
                </g>
                <g transform="matrix(56.5941,0,0,56.5941,594.883,280.137)">
                    <path d="M0.335,-0.544C0.426,-0.544 0.498,-0.515 0.549,-0.458C0.598,-0.403 0.623,-0.33 0.623,-0.239C0.623,-0.144 0.597,-0.07 0.545,-0.015C0.493,0.04 0.421,0.067 0.329,0.067C0.242,0.067 0.172,0.039 0.119,-0.016C0.065,-0.072 0.038,-0.145 0.038,-0.235C0.038,-0.327 0.063,-0.401 0.113,-0.456C0.166,-0.515 0.24,-0.544 0.335,-0.544ZM0.331,-0.027C0.383,-0.027 0.424,-0.045 0.453,-0.08C0.484,-0.117 0.499,-0.17 0.499,-0.238C0.499,-0.305 0.484,-0.357 0.453,-0.395C0.423,-0.432 0.382,-0.451 0.331,-0.451C0.276,-0.451 0.234,-0.432 0.204,-0.395C0.174,-0.358 0.159,-0.305 0.159,-0.237C0.159,-0.169 0.176,-0.116 0.209,-0.079C0.24,-0.044 0.28,-0.027 0.331,-0.027Z" style="fill:white;fill-rule:nonzero;"/>
                </g>
                <g transform="matrix(56.5941,0,0,56.5941,632.378,280.137)">
                    <path d="M0.598,0.053L0.479,0.053L0.479,-0.296C0.479,-0.349 0.468,-0.388 0.447,-0.413C0.426,-0.438 0.392,-0.451 0.346,-0.451C0.304,-0.451 0.269,-0.436 0.24,-0.407C0.211,-0.377 0.195,-0.338 0.192,-0.291L0.192,0.053L0.074,0.053L0.074,-0.531L0.192,-0.531L0.192,-0.428C0.209,-0.461 0.236,-0.489 0.273,-0.511C0.31,-0.534 0.349,-0.545 0.389,-0.545C0.464,-0.545 0.518,-0.525 0.551,-0.486C0.582,-0.449 0.598,-0.392 0.598,-0.314L0.598,0.053Z" style="fill:white;fill-rule:nonzero;"/>
                </g>
                <g transform="matrix(56.5941,0,0,56.5941,670.326,280.137)">
                    <path d="M0.254,0.032L0.01,-0.532L0.142,-0.532L0.286,-0.144L0.31,-0.072L0.311,-0.072L0.335,-0.145L0.469,-0.532L0.598,-0.532C0.515,-0.328 0.432,-0.124 0.349,0.08C0.318,0.156 0.287,0.208 0.256,0.237C0.229,0.261 0.195,0.273 0.153,0.273C0.106,0.273 0.07,0.267 0.045,0.255L0.041,0.167C0.063,0.177 0.087,0.182 0.114,0.182C0.14,0.182 0.161,0.177 0.177,0.167C0.194,0.156 0.208,0.139 0.219,0.114C0.231,0.087 0.243,0.059 0.254,0.032Z" style="fill:white;fill-rule:nonzero;"/>
                </g>
                <g transform="matrix(56.5941,0,0,56.5941,704.596,280.137)">
                    <path d="M0.447,-0.764C0.568,-0.761 0.662,-0.721 0.731,-0.642C0.8,-0.564 0.835,-0.466 0.836,-0.347C0.836,-0.222 0.8,-0.122 0.728,-0.046C0.656,0.03 0.561,0.068 0.442,0.068C0.326,0.068 0.232,0.03 0.16,-0.045C0.087,-0.121 0.051,-0.221 0.051,-0.346C0.051,-0.471 0.087,-0.571 0.158,-0.648C0.23,-0.725 0.326,-0.764 0.447,-0.764ZM0.437,-0.039C0.518,-0.039 0.582,-0.066 0.629,-0.121C0.677,-0.176 0.701,-0.252 0.701,-0.347C0.701,-0.442 0.676,-0.518 0.627,-0.575C0.579,-0.631 0.517,-0.659 0.441,-0.659C0.366,-0.658 0.304,-0.629 0.255,-0.574C0.207,-0.519 0.182,-0.443 0.18,-0.347C0.18,-0.251 0.205,-0.175 0.256,-0.118C0.303,-0.065 0.364,-0.039 0.437,-0.039Z" style="fill:white;fill-rule:nonzero;"/>
                </g>
                <g transform="matrix(56.5941,0,0,56.5941,754.768,280.137)">
                    <path d="M0.051,-0.195L0.174,-0.224C0.184,-0.158 0.208,-0.109 0.246,-0.078C0.282,-0.048 0.333,-0.033 0.399,-0.033C0.458,-0.033 0.503,-0.047 0.536,-0.074C0.565,-0.098 0.58,-0.129 0.58,-0.167C0.58,-0.198 0.569,-0.224 0.548,-0.243C0.524,-0.265 0.481,-0.285 0.419,-0.304C0.403,-0.309 0.372,-0.317 0.327,-0.328C0.233,-0.351 0.168,-0.38 0.132,-0.413C0.098,-0.445 0.081,-0.491 0.081,-0.55C0.081,-0.611 0.106,-0.662 0.157,-0.702C0.21,-0.744 0.281,-0.765 0.369,-0.765C0.464,-0.765 0.537,-0.746 0.59,-0.708C0.64,-0.672 0.673,-0.618 0.689,-0.545L0.565,-0.518C0.557,-0.565 0.538,-0.601 0.507,-0.626C0.475,-0.652 0.431,-0.665 0.376,-0.665C0.325,-0.665 0.283,-0.653 0.252,-0.628C0.224,-0.606 0.21,-0.58 0.21,-0.549C0.21,-0.517 0.223,-0.492 0.249,-0.474C0.276,-0.455 0.326,-0.437 0.399,-0.421C0.434,-0.413 0.472,-0.403 0.514,-0.39C0.587,-0.367 0.639,-0.335 0.671,-0.295C0.698,-0.262 0.711,-0.22 0.711,-0.17C0.711,-0.098 0.683,-0.04 0.628,0.003C0.573,0.046 0.498,0.068 0.404,0.068C0.301,0.068 0.222,0.047 0.166,0.005C0.109,-0.037 0.071,-0.104 0.051,-0.195Z" style="fill:white;fill-rule:nonzero;"/>
                </g>
                <g transform="matrix(56.5941,0,0,56.5941,813.615,280.137)">
                    <path d="M0.527,-0.479L0.521,-0.486C0.52,-0.421 0.517,-0.35 0.513,-0.275C0.51,-0.232 0.499,-0.201 0.48,-0.181C0.461,-0.161 0.432,-0.15 0.392,-0.148L0.281,-0.145C0.277,-0.174 0.271,-0.204 0.263,-0.237C0.3,-0.235 0.331,-0.234 0.356,-0.235C0.377,-0.236 0.393,-0.241 0.403,-0.25C0.412,-0.259 0.418,-0.274 0.42,-0.295C0.423,-0.327 0.424,-0.361 0.424,-0.397L0.211,-0.397L0.211,-0.066C0.211,-0.041 0.216,-0.024 0.225,-0.015C0.235,-0.005 0.252,-0 0.277,-0L0.401,-0C0.445,-0 0.471,-0.016 0.479,-0.049C0.486,-0.072 0.492,-0.105 0.497,-0.146C0.527,-0.134 0.559,-0.123 0.592,-0.113C0.583,-0.064 0.574,-0.026 0.566,-0.001C0.556,0.034 0.54,0.058 0.518,0.072C0.496,0.086 0.463,0.093 0.419,0.093L0.253,0.093C0.204,0.093 0.169,0.082 0.147,0.059C0.126,0.037 0.115,0.001 0.115,-0.049L0.115,-0.453C0.092,-0.434 0.075,-0.42 0.064,-0.413C0.051,-0.446 0.036,-0.478 0.021,-0.507C0.144,-0.596 0.233,-0.702 0.29,-0.826L0.396,-0.815C0.391,-0.806 0.383,-0.792 0.374,-0.773C0.431,-0.72 0.506,-0.648 0.599,-0.555L0.527,-0.479ZM0.664,0.107C0.659,0.075 0.653,0.039 0.644,-0C0.686,0.003 0.726,0.004 0.764,0.004C0.787,0.004 0.803,-0.001 0.812,-0.011C0.822,-0.022 0.827,-0.039 0.827,-0.063L0.827,-0.819L0.928,-0.819L0.928,-0.034C0.928,0.014 0.919,0.048 0.9,0.069C0.881,0.09 0.849,0.101 0.803,0.104C0.769,0.106 0.723,0.107 0.664,0.107ZM0.622,-0.125L0.622,-0.713L0.718,-0.713L0.718,-0.125L0.622,-0.125ZM0.328,-0.694C0.279,-0.617 0.221,-0.548 0.154,-0.488L0.519,-0.488C0.48,-0.532 0.417,-0.601 0.328,-0.694Z" style="fill:white;fill-rule:nonzero;"/>
                </g>
                <g transform="matrix(56.5941,0,0,56.5941,870.126,280.137)">
                    <path d="M0.053,-0.641L0.053,-0.726L0.234,-0.726C0.22,-0.77 0.21,-0.799 0.205,-0.812L0.312,-0.825L0.343,-0.726L0.502,-0.726L0.502,-0.641L0.167,-0.641C0.184,-0.62 0.21,-0.582 0.247,-0.528L0.187,-0.496L0.301,-0.496C0.33,-0.547 0.357,-0.594 0.38,-0.637L0.468,-0.605C0.437,-0.556 0.414,-0.519 0.399,-0.496L0.523,-0.496L0.523,-0.411L0.333,-0.411L0.333,-0.32L0.503,-0.32L0.503,-0.235L0.333,-0.235L0.333,-0.015C0.333,0.024 0.325,0.053 0.309,0.072C0.292,0.091 0.264,0.102 0.225,0.105C0.201,0.107 0.171,0.108 0.135,0.108C0.13,0.077 0.123,0.046 0.114,0.013C0.145,0.014 0.168,0.015 0.185,0.015C0.203,0.015 0.216,0.011 0.224,0.003C0.232,-0.005 0.236,-0.018 0.236,-0.036L0.236,-0.235L0.05,-0.235L0.05,-0.32L0.236,-0.32L0.236,-0.411L0.028,-0.411L0.028,-0.496L0.16,-0.496C0.148,-0.516 0.125,-0.551 0.091,-0.602L0.165,-0.641L0.053,-0.641ZM0.772,0.11L0.772,-0.383L0.658,-0.383L0.658,-0.368C0.658,-0.252 0.65,-0.159 0.634,-0.09C0.619,-0.023 0.59,0.046 0.548,0.117C0.517,0.095 0.488,0.075 0.46,0.058C0.499,-0.005 0.526,-0.064 0.539,-0.121C0.553,-0.18 0.56,-0.265 0.56,-0.375L0.56,-0.749C0.695,-0.756 0.817,-0.769 0.924,-0.787L0.956,-0.694C0.855,-0.68 0.756,-0.669 0.658,-0.662L0.658,-0.476L0.971,-0.476L0.971,-0.383L0.868,-0.383L0.868,0.11L0.772,0.11ZM0.096,0.028L0.02,-0.01C0.055,-0.074 0.085,-0.137 0.11,-0.199L0.189,-0.17C0.162,-0.108 0.131,-0.042 0.096,0.028ZM0.44,-0.022C0.389,-0.111 0.36,-0.159 0.355,-0.168L0.429,-0.204C0.46,-0.157 0.49,-0.109 0.517,-0.062L0.44,-0.022Z" style="fill:white;fill-rule:nonzero;"/>
                </g>
                <g transform="matrix(56.5941,0,0,56.5941,926.637,280.137)">
                    <path d="M0.055,-0.598L0.055,-0.753L0.447,-0.753C0.445,-0.762 0.439,-0.783 0.428,-0.818L0.548,-0.827C0.551,-0.818 0.556,-0.793 0.564,-0.753L0.943,-0.753L0.943,-0.598L0.854,-0.598L0.854,-0.546L0.697,-0.546L0.697,-0.49L0.877,-0.49L0.877,-0.429L0.697,-0.429L0.697,-0.375L0.952,-0.375L0.952,-0.307L0.73,-0.307C0.797,-0.263 0.877,-0.23 0.97,-0.209C0.953,-0.18 0.94,-0.152 0.93,-0.126C0.874,-0.145 0.827,-0.164 0.79,-0.183L0.79,-0.041L0.695,-0.041L0.695,-0.176L0.308,-0.176L0.308,-0.032L0.213,-0.032L0.213,-0.183C0.173,-0.162 0.124,-0.142 0.067,-0.121C0.053,-0.152 0.04,-0.18 0.027,-0.203C0.12,-0.228 0.2,-0.262 0.268,-0.307L0.046,-0.307L0.046,-0.375L0.3,-0.375L0.3,-0.429L0.123,-0.429L0.123,-0.49L0.3,-0.49L0.3,-0.546L0.144,-0.546L0.144,-0.598L0.055,-0.598ZM0.894,0.121C0.739,0.072 0.608,0.033 0.501,0.002L0.498,0.005C0.471,0.034 0.427,0.057 0.366,0.076C0.303,0.096 0.215,0.113 0.102,0.126C0.091,0.099 0.077,0.069 0.06,0.038C0.253,0.023 0.372,-0.004 0.415,-0.044C0.442,-0.065 0.456,-0.099 0.457,-0.144L0.555,-0.144C0.553,-0.113 0.549,-0.088 0.542,-0.067L0.935,0.039L0.894,0.121ZM0.155,-0.684L0.155,-0.61L0.3,-0.61L0.3,-0.659L0.399,-0.659L0.399,-0.61L0.598,-0.61L0.598,-0.659L0.697,-0.659L0.697,-0.61L0.844,-0.61L0.844,-0.684L0.155,-0.684ZM0.392,-0.307C0.363,-0.282 0.336,-0.26 0.311,-0.243L0.69,-0.243C0.663,-0.262 0.637,-0.284 0.612,-0.307L0.392,-0.307ZM0.399,-0.546L0.399,-0.49L0.598,-0.49L0.598,-0.546L0.399,-0.546ZM0.399,-0.429L0.399,-0.375L0.598,-0.375L0.598,-0.429L0.399,-0.429Z" style="fill:white;fill-rule:nonzero;"/>
                </g>
            </g>
        </g>
    </g>
</svg>
